<?xml version="1.0" encoding="UTF-8" standalone="no"?>
<svg
   xmlns:dc="http://purl.org/dc/elements/1.1/"
   xmlns:cc="http://creativecommons.org/ns#"
   xmlns:rdf="http://www.w3.org/1999/02/22-rdf-syntax-ns#"
   xmlns:svg="http://www.w3.org/2000/svg"
   xmlns="http://www.w3.org/2000/svg"
   xmlns:sodipodi="http://sodipodi.sourceforge.net/DTD/sodipodi-0.dtd"
   xmlns:inkscape="http://www.inkscape.org/namespaces/inkscape"
   version="1.1"
   id="Layer_1"
   x="0px"
   y="0px"
   viewBox="0 0 652.39 375.14"
   xml:space="preserve"
   sodipodi:docname="SIG_Logo.svg"
   width="652.39001"
   height="375.14001"
   inkscape:version="1.0.1 (3bc2e813f5, 2020-09-07)"><metadata
   id="metadata17"><rdf:RDF><cc:Work
       rdf:about=""><dc:format>image/svg+xml</dc:format><dc:type
         rdf:resource="http://purl.org/dc/dcmitype/StillImage" /><dc:title></dc:title></cc:Work></rdf:RDF></metadata><defs
   id="defs15" /><sodipodi:namedview
   pagecolor="#ffffff"
   bordercolor="#666666"
   borderopacity="1"
   objecttolerance="10"
   gridtolerance="10"
   guidetolerance="10"
   inkscape:pageopacity="0"
   inkscape:pageshadow="2"
   inkscape:window-width="1366"
   inkscape:window-height="705"
   id="namedview13"
   showgrid="false"
   fit-margin-top="0"
   fit-margin-left="0"
   fit-margin-right="0"
   fit-margin-bottom="0"
   inkscape:zoom="0.72565926"
   inkscape:cx="325.99501"
   inkscape:cy="187.21001"
   inkscape:window-x="-8"
   inkscape:window-y="-8"
   inkscape:window-maximized="1"
   inkscape:current-layer="Layer_1" />
<style
   type="text/css"
   id="style2">
	.st0{fill:#010101;}
	.st1{fill:#F5333F;}
</style>



<g
   id="g846"
   transform="translate(-94.95,-110.43)"><path
     class="st0"
     d="m 368.02,418.13 c -0.19,-37.38 -30.36,-67.44 -67.43,-67.44 h -69.1 l -0.01,0.01 h -69.09 c -12.91,0 -23.41,-10.45 -23.51,-23.69 0.1,-12.88 10.6,-23.34 23.51,-23.34 h 138.2 c 12.96,0 23.51,10.55 23.51,23.51 h 43.93 c 0,-37.19 -30.25,-67.44 -67.44,-67.44 h -138.2 c -37.07,0 -67.24,30.06 -67.43,67.08 h -0.01 c 0,0.06 0,0.12 0,0.18 0,0.06 0,0.12 0,0.18 h 0.01 c 0.19,37.38 30.36,67.44 67.43,67.44 h 69.1 v -0.01 h 69.1 c 12.91,0 23.41,10.45 23.5,23.69 -0.1,12.88 -10.6,23.34 -23.5,23.34 h -138.2 c -12.97,0 -23.51,-10.55 -23.51,-23.51 H 94.95 c 0,37.19 30.25,67.44 67.44,67.44 h 138.2 c 37.07,0 67.24,-30.06 67.43,-67.08 h 0.01 c 0,-0.06 0,-0.12 0,-0.18 0,-0.06 0,-0.12 -0.01,-0.18 z"
     id="path4" /><rect
     x="399.16"
     y="259.39999"
     class="st0"
     width="44.68"
     height="226.17"
     id="rect6" /><path
     class="st0"
     d="M 565.96,394.62 H 703.4 v 23.69 h -0.01 c -0.1,12.88 -10.6,23.34 -23.5,23.34 H 541.7 c -12.97,0 -23.51,-10.55 -23.51,-23.51 l 0.01,-91.12 c 0.1,-12.88 10.6,-23.34 23.5,-23.34 h 138.2 c 12.97,0 23.51,10.55 23.51,23.51 h 43.93 c 0,-37.19 -30.25,-67.44 -67.44,-67.44 H 541.7 c -37.07,0 -67.24,30.06 -67.43,67.08 l -0.01,91.3 c 0,37.19 30.25,67.44 67.44,67.44 h 138.2 c 36.4,0 66.08,-29.01 67.32,-65.11 h 0.12 V 394.62 356.1 350.69 H 565.96 Z"
     id="path8" /><path
     class="st1"
     d="M 525.91,214.85 421.49,110.43 317.08,214.85 h 61.04 l 39.02,-38.89 c 1.28,-1.03 2.88,-1.67 4.65,-1.67 1.93,0 3.68,0.75 5,1.95 l 38.34,38.61 z"
     id="path10" /></g>
</svg>
